<svg xmlns="http://www.w3.org/2000/svg" x="0px" y="0px"
width="48" height="48"
viewBox="0 0 172 172"
style=" fill:#000000;"><defs><linearGradient x1="36.00175" y1="65.22742" x2="35.16325" y2="167.73583" gradientUnits="userSpaceOnUse" id="color-1_XNJzvoMWObVH_gr1"><stop offset="0.019" stop-color="#b3b7bd"></stop><stop offset="0.261" stop-color="#e0e0e0"></stop><stop offset="1" stop-color="#8a929d"></stop></linearGradient><linearGradient x1="136.33508" y1="65.22742" x2="135.49658" y2="167.73583" gradientUnits="userSpaceOnUse" id="color-2_XNJzvoMWObVH_gr2"><stop offset="0.019" stop-color="#b3b7bd"></stop><stop offset="0.261" stop-color="#e0e0e0"></stop><stop offset="1" stop-color="#8a929d"></stop></linearGradient><linearGradient x1="65.962" y1="2.59433" x2="102.24325" y2="75.75167" gradientUnits="userSpaceOnUse" id="color-3_XNJzvoMWObVH_gr3"><stop offset="0" stop-color="#fdd835"></stop><stop offset="1" stop-color="#f9a825"></stop></linearGradient><linearGradient x1="122.42817" y1="29.74883" x2="134.32483" y2="53.73925" gradientUnits="userSpaceOnUse" id="color-4_XNJzvoMWObVH_gr4"><stop offset="0" stop-color="#666666"></stop><stop offset="0.999" stop-color="#171717"></stop></linearGradient><linearGradient x1="142.54142" y1="46.74817" x2="148.89108" y2="59.555" gradientUnits="userSpaceOnUse" id="color-5_XNJzvoMWObVH_gr5"><stop offset="0" stop-color="#666666"></stop><stop offset="0.999" stop-color="#171717"></stop></linearGradient><linearGradient x1="93.7615" y1="29.74883" x2="105.65817" y2="53.73925" gradientUnits="userSpaceOnUse" id="color-6_XNJzvoMWObVH_gr6"><stop offset="0" stop-color="#666666"></stop><stop offset="0.999" stop-color="#171717"></stop></linearGradient><linearGradient x1="22.44242" y1="25.10483" x2="28.79567" y2="37.91167" gradientUnits="userSpaceOnUse" id="color-7_XNJzvoMWObVH_gr7"><stop offset="0" stop-color="#666666"></stop><stop offset="0.999" stop-color="#171717"></stop></linearGradient><linearGradient x1="65.09483" y1="29.74883" x2="76.9915" y2="53.73925" gradientUnits="userSpaceOnUse" id="color-8_XNJzvoMWObVH_gr8"><stop offset="0" stop-color="#666666"></stop><stop offset="0.999" stop-color="#171717"></stop></linearGradient><linearGradient x1="36.42817" y1="29.74883" x2="48.32483" y2="53.73925" gradientUnits="userSpaceOnUse" id="color-9_XNJzvoMWObVH_gr9"><stop offset="0" stop-color="#666666"></stop><stop offset="0.999" stop-color="#171717"></stop></linearGradient><linearGradient x1="65.962" y1="56.34433" x2="102.24325" y2="129.50167" gradientUnits="userSpaceOnUse" id="color-10_XNJzvoMWObVH_gr10"><stop offset="0" stop-color="#fdd835"></stop><stop offset="1" stop-color="#f9a825"></stop></linearGradient><linearGradient x1="122.42817" y1="83.49883" x2="134.32483" y2="107.48925" gradientUnits="userSpaceOnUse" id="color-11_XNJzvoMWObVH_gr11"><stop offset="0" stop-color="#666666"></stop><stop offset="0.999" stop-color="#171717"></stop></linearGradient><linearGradient x1="142.54142" y1="100.49817" x2="148.89108" y2="113.305" gradientUnits="userSpaceOnUse" id="color-12_XNJzvoMWObVH_gr12"><stop offset="0" stop-color="#666666"></stop><stop offset="0.999" stop-color="#171717"></stop></linearGradient><linearGradient x1="93.7615" y1="83.49883" x2="105.65817" y2="107.48925" gradientUnits="userSpaceOnUse" id="color-13_XNJzvoMWObVH_gr13"><stop offset="0" stop-color="#666666"></stop><stop offset="0.999" stop-color="#171717"></stop></linearGradient><linearGradient x1="22.44242" y1="78.85483" x2="28.79567" y2="91.66167" gradientUnits="userSpaceOnUse" id="color-14_XNJzvoMWObVH_gr14"><stop offset="0" stop-color="#666666"></stop><stop offset="0.999" stop-color="#171717"></stop></linearGradient><linearGradient x1="65.09483" y1="83.49883" x2="76.9915" y2="107.48925" gradientUnits="userSpaceOnUse" id="color-15_XNJzvoMWObVH_gr15"><stop offset="0" stop-color="#666666"></stop><stop offset="0.999" stop-color="#171717"></stop></linearGradient><linearGradient x1="36.42817" y1="83.49883" x2="48.32483" y2="107.48925" gradientUnits="userSpaceOnUse" id="color-16_XNJzvoMWObVH_gr16"><stop offset="0" stop-color="#666666"></stop><stop offset="0.999" stop-color="#171717"></stop></linearGradient><linearGradient x1="35.83333" y1="70.17242" x2="35.83333" y2="50.62892" gradientUnits="userSpaceOnUse" id="color-17_XNJzvoMWObVH_gr17"><stop offset="0.007" stop-color="#000000" stop-opacity="0"></stop><stop offset="0.893" stop-color="#000000" stop-opacity="0.8"></stop></linearGradient><linearGradient x1="35.83333" y1="123.92242" x2="35.83333" y2="104.37533" gradientUnits="userSpaceOnUse" id="color-18_XNJzvoMWObVH_gr18"><stop offset="0.007" stop-color="#000000" stop-opacity="0"></stop><stop offset="0.893" stop-color="#000000" stop-opacity="0.8"></stop></linearGradient><linearGradient x1="136.16667" y1="70.17242" x2="136.16667" y2="50.62892" gradientUnits="userSpaceOnUse" id="color-19_XNJzvoMWObVH_gr19"><stop offset="0.007" stop-color="#000000" stop-opacity="0"></stop><stop offset="0.893" stop-color="#000000" stop-opacity="0.8"></stop></linearGradient><linearGradient x1="136.16667" y1="123.92242" x2="136.16667" y2="104.37533" gradientUnits="userSpaceOnUse" id="color-20_XNJzvoMWObVH_gr20"><stop offset="0.007" stop-color="#000000" stop-opacity="0"></stop><stop offset="0.893" stop-color="#000000" stop-opacity="0.8"></stop></linearGradient><radialGradient cx="35.4965" cy="42.32992" r="3.698" gradientUnits="userSpaceOnUse" id="color-21_XNJzvoMWObVH_gr21"><stop offset="0" stop-color="#ffffff"></stop><stop offset="1" stop-color="#8a929d"></stop></radialGradient><radialGradient cx="35.4965" cy="96.07992" r="3.698" gradientUnits="userSpaceOnUse" id="color-22_XNJzvoMWObVH_gr22"><stop offset="0" stop-color="#ffffff"></stop><stop offset="1" stop-color="#8a929d"></stop></radialGradient><radialGradient cx="135.82983" cy="42.32992" r="3.698" gradientUnits="userSpaceOnUse" id="color-23_XNJzvoMWObVH_gr23"><stop offset="0" stop-color="#ffffff"></stop><stop offset="1" stop-color="#8a929d"></stop></radialGradient><radialGradient cx="135.82983" cy="96.07992" r="3.698" gradientUnits="userSpaceOnUse" id="color-24_XNJzvoMWObVH_gr24"><stop offset="0" stop-color="#ffffff"></stop><stop offset="1" stop-color="#8a929d"></stop></radialGradient></defs><g fill="none" fill-rule="nonzero" stroke="none" stroke-width="1" stroke-linecap="butt" stroke-linejoin="miter" stroke-miterlimit="10" stroke-dasharray="" stroke-dashoffset="0" font-family="none" font-weight="none" font-size="none" text-anchor="none" style="mix-blend-mode: normal"><path d="M0,172v-172h172v172z" fill="none"></path><g><path d="M41.16175,157.66667h-10.65683c-1.01408,0 -1.83825,-0.82417 -1.83825,-1.83825v-139.65683c0,-1.01408 0.82417,-1.83825 1.83825,-1.83825h10.65683c1.01408,0 1.83825,0.82417 1.83825,1.83825v139.65683c0,1.01408 -0.82417,1.83825 -1.83825,1.83825z" fill="url(#color-1_XNJzvoMWObVH_gr1)"></path><path d="M141.49508,157.66667h-10.65683c-1.01408,0 -1.83825,-0.82417 -1.83825,-1.83825v-139.65683c0,-1.01408 0.82417,-1.83825 1.83825,-1.83825h10.65683c1.01408,0 1.83825,0.82417 1.83825,1.83825v139.65683c0,1.01408 -0.82417,1.83825 -1.83825,1.83825z" fill="url(#color-2_XNJzvoMWObVH_gr2)"></path><path d="M148.68325,60.91667h-125.3665c-1.00333,0 -1.81675,-0.81342 -1.81675,-1.81675v-32.19983c0,-1.00333 0.81342,-1.81675 1.81675,-1.81675h125.37008c0.99975,0 1.81317,0.81342 1.81317,1.81675v32.20342c0,0.99975 -0.81342,1.81317 -1.81675,1.81317z" fill="url(#color-3_XNJzvoMWObVH_gr3)"></path><path d="M111.08333,60.91667h14.33333l21.5,-35.83333h-14.33333z" fill="url(#color-4_XNJzvoMWObVH_gr4)"></path><path d="M139.75,60.91667h8.93325c1.00333,0 1.81675,-0.81342 1.81675,-1.81675v-16.09992z" fill="url(#color-5_XNJzvoMWObVH_gr5)"></path><path d="M82.41667,60.91667h14.33333l21.5,-35.83333h-14.33333z" fill="url(#color-6_XNJzvoMWObVH_gr6)"></path><path d="M21.5,26.90008v16.09992l10.75,-17.91667h-8.93325c-1.00333,0 -1.81675,0.81342 -1.81675,1.81675z" fill="url(#color-7_XNJzvoMWObVH_gr7)"></path><path d="M53.75,60.91667h14.33333l21.5,-35.83333h-14.33333z" fill="url(#color-8_XNJzvoMWObVH_gr8)"></path><path d="M25.08333,60.91667h14.33333l21.5,-35.83333h-14.33333z" fill="url(#color-9_XNJzvoMWObVH_gr9)"></path><path d="M148.68325,114.66667h-125.3665c-1.00333,0 -1.81675,-0.81342 -1.81675,-1.81675v-32.20342c0,-0.99975 0.81342,-1.81317 1.81675,-1.81317h125.37008c0.99975,0 1.81317,0.81342 1.81317,1.81675v32.20342c0,0.99975 -0.81342,1.81317 -1.81675,1.81317z" fill="url(#color-10_XNJzvoMWObVH_gr10)"></path><path d="M111.08333,114.66667h14.33333l21.5,-35.83333h-14.33333z" fill="url(#color-11_XNJzvoMWObVH_gr11)"></path><path d="M139.75,114.66667h8.93325c1.00333,0 1.81675,-0.81342 1.81675,-1.81675v-16.09992z" fill="url(#color-12_XNJzvoMWObVH_gr12)"></path><path d="M82.41667,114.66667h14.33333l21.5,-35.83333h-14.33333z" fill="url(#color-13_XNJzvoMWObVH_gr13)"></path><path d="M21.5,80.65008v16.09992l10.75,-17.91667h-8.93325c-1.00333,0 -1.81675,0.81342 -1.81675,1.81675z" fill="url(#color-14_XNJzvoMWObVH_gr14)"></path><path d="M53.75,114.66667h14.33333l21.5,-35.83333h-14.33333z" fill="url(#color-15_XNJzvoMWObVH_gr15)"></path><path d="M25.08333,114.66667h14.33333l21.5,-35.83333h-14.33333z" fill="url(#color-16_XNJzvoMWObVH_gr16)"></path><rect x="8" y="17" transform="scale(3.58333,3.58333)" width="4" height="3" fill="url(#color-17_XNJzvoMWObVH_gr17)"></rect><rect x="8" y="32" transform="scale(3.58333,3.58333)" width="4" height="3" fill="url(#color-18_XNJzvoMWObVH_gr18)"></rect><rect x="36" y="17" transform="scale(3.58333,3.58333)" width="4" height="3" fill="url(#color-19_XNJzvoMWObVH_gr19)"></rect><rect x="36" y="32" transform="scale(3.58333,3.58333)" width="4" height="3" fill="url(#color-20_XNJzvoMWObVH_gr20)"></rect><circle cx="10" cy="12" transform="scale(3.58333,3.58333)" r="1" fill="url(#color-21_XNJzvoMWObVH_gr21)"></circle><circle cx="10" cy="27" transform="scale(3.58333,3.58333)" r="1" fill="url(#color-22_XNJzvoMWObVH_gr22)"></circle><circle cx="38" cy="12" transform="scale(3.58333,3.58333)" r="1" fill="url(#color-23_XNJzvoMWObVH_gr23)"></circle><circle cx="38" cy="27" transform="scale(3.58333,3.58333)" r="1" fill="url(#color-24_XNJzvoMWObVH_gr24)"></circle></g></g></svg>

